<svg id="logo" xmlns="http://www.w3.org/2000/svg" xmlns:xlink="http://www.w3.org/1999/xlink" width="149.54" height="20" viewBox="0 0 149.54 20">
  <defs>
    <clipPath id="clip-path">
      <rect id="Rettangolo_145" data-name="Rettangolo 145" width="149.54" height="20" fill="#18181a"/>
    </clipPath>
  </defs>
  <g id="Raggruppa_100" data-name="Raggruppa 100" clip-path="url(#clip-path)">
    <path id="Tracciato_224" data-name="Tracciato 224" d="M122.255,6.947c0,4.294-3.108,6.894-8.25,6.894h-4.888v5.99h-2.825V.053h7.713c5.142,0,8.25,2.6,8.25,6.894m-2.825,0c0-2.825-1.893-4.436-5.509-4.436h-4.8v8.871h4.8c3.616,0,5.509-1.611,5.509-4.436m13.251-2.232V7.343a4.786,4.786,0,0,0-.622-.028c-2.91,0-4.718,1.78-4.718,5.057V19.83h-2.712V4.857h2.6V7.371c.961-1.752,2.825-2.656,5.453-2.656m1.243,7.628a7.785,7.785,0,0,1,15.568,0,7.785,7.785,0,0,1-15.568,0m12.827,0a5.047,5.047,0,1,0-10.086,0,5.049,5.049,0,1,0,10.086,0m2.789-10.3a2.053,2.053,0,1,1-4.106.012A2.029,2.029,0,0,1,147.493,0a2,2,0,0,1,2.047,2.041m-.273,0a1.732,1.732,0,0,0-1.774-1.78,1.758,1.758,0,0,0-1.786,1.791,1.78,1.78,0,1,0,3.56-.012m-1.221.355.529.82h-.4l-.483-.744h-.634v.744h-.4V.89h.931c.582,0,.942.308.942.791a.711.711,0,0,1-.489.715m.1-.715c0-.3-.215-.459-.588-.459h-.512v.925h.512c.372,0,.588-.169.588-.465M14.993,9.843h2.655v7.551a11.446,11.446,0,0,1-7.33,2.462C4.371,19.856,0,15.679,0,9.953S4.371.051,10.373.051a9.706,9.706,0,0,1,7.441,2.987L16.1,4.753a7.676,7.676,0,0,0-5.615-2.24C6,2.512,2.766,5.638,2.766,9.953a7.351,7.351,0,0,0,7.69,7.441,8.2,8.2,0,0,0,4.537-1.245Zm21.991,7.385v2.406H22.932V.272H36.6V2.678H25.7V8.626h9.709v2.351H25.7v6.252ZM53.8,14.794H43.513l-2.13,4.841H38.534L47.3.272h2.738l8.8,19.363h-2.9Zm-.968-2.213L48.658,3.093l-4.177,9.488Zm21.826,7.054-4.177-5.947c-.387.027-.8.055-1.217.055H64.481v5.892H61.715V.272h7.551c5.034,0,8.077,2.545,8.077,6.749a6.111,6.111,0,0,1-4.26,6.113l4.591,6.5ZM74.577,7.021c0-2.766-1.853-4.343-5.394-4.343h-4.7v8.714h4.7c3.541,0,5.394-1.6,5.394-4.371M98.928,7,104.275.06H99.727l-3.073,3.99Zm5.347,12.843L89.038.06H84.49l7.618,9.893L84.49,19.847h4.548l5.344-6.94,5.344,6.94ZM79.952,5.966l3.07,3.987-3.07,3.987v5.906l7.618-9.893L79.952.06Z" transform="translate(0 0)" fill="#18181a"/>
  </g>
</svg>
