<svg xmlns="http://www.w3.org/2000/svg" xmlns:xlink="http://www.w3.org/1999/xlink" width="1920" height="984" viewBox="0 0 1920 984">
  <defs>
    <clipPath id="clip-path">
      <rect id="Rettangolo_144" data-name="Rettangolo 144" width="1920" height="984" transform="translate(0 96)" fill="#fff"/>
    </clipPath>
  </defs>
  <g id="texture" transform="translate(0 -96)" clip-path="url(#clip-path)">
    <g id="Raggruppa_99" data-name="Raggruppa 99" transform="translate(0 -88.484)" opacity="0.024">
      <path id="Tracciato_204" data-name="Tracciato 204" d="M134.78,26.637C180.815,51.4,233.4,59.164,289.27,52.246,347.71,45.012,394.149,27.218,429.422,0H410.185c-35.6,24.737-79.942,40.028-134.175,44.153-45.789,3.482-88.228-3.561-125.024-24.084A167.029,167.029,0,0,1,122.463,0H96.735A201.981,201.981,0,0,0,134.78,26.637" transform="translate(40.542 -0.001)" fill="#fff" fill-rule="evenodd"/>
      <path id="Tracciato_205" data-name="Tracciato 205" d="M246.19,27.47a222.889,222.889,0,0,0,64.673-9.507A228.528,228.528,0,0,0,354.666,0h-32.3A177.054,177.054,0,0,1,282.184,9.3c-16.425,1.864-32.6,1.222-47.943-3.762A68.19,68.19,0,0,1,221.558,0H157.652c21.6,18.319,51.23,27.366,88.538,27.469" transform="translate(66.072 -0.001)" fill="#fff" fill-rule="evenodd"/>
      <path id="Tracciato_206" data-name="Tracciato 206" d="M55.031,1317.8C33.369,1294.478,14.586,1270.146,0,1244.443v74.9a121.118,121.118,0,0,1,29.578,16.394c.333.26.677.508,1.006.772,7.575,6.047,12.421,11.516,13.672,16.461H91.208c-9.824-8.715-19.34-17.6-28.212-26.766q-4.047-4.18-7.965-8.4" transform="translate(0 -0.001)" fill="#fff" fill-rule="evenodd"/>
      <path id="Tracciato_207" data-name="Tracciato 207" d="M409.556,74.289c-25.2,7.383-51.042,13.674-76.607,20.43-24.238,6.4-48.706,12.4-72.681,19.26a162.652,162.652,0,0,0-27.787,10.557c-7.65,3.814-14.717,11.745-22.208,14.713a39.266,39.266,0,0,1-6.91,1.933c-15.779,3.078-39.783.667-53.687-.657-31.941-3.041-56.357-17.509-84.715-27.577C45.333,105.98,22.734,102.048,0,100.889v34.152a400.591,400.591,0,0,1,65.022,8.011c18.644,3.98,38.182,7.642,56.44,12.6,13.533,3.672,25.053,9.453,38.321,13.5,25.979,7.917,57.432,9.833,83.215.439.149-.054.287-.114.436-.167,13.384-4.979,19.033-11.642,27.868-19.582,11.649-10.469,30.857-18.773,47.678-24.361q37.977-12.615,77.227-23.3c68.95-18.716,128.534-46.8,178.128-85.533Q585.118,8.225,596.218,0H545.772c-35.919,33.017-81.113,58.145-136.215,74.288" transform="translate(0 -0.001)" fill="#fff" fill-rule="evenodd"/>
      <path id="Tracciato_208" data-name="Tracciato 208" d="M725.159,69.906c-28.267,8.088-56.186,16.967-81.427,29.158-30.844,14.9-61.373,30.164-91.184,46.067-33.922,18.091-67.135,36.877-96.419,58.789-11.889,8.9-23.664,18.957-28.737,30.8-9.633,22.5-28.541,31.649-47.074,49.25-19.723,18.729-21.076,50.817-18.5,73.088,2.134,18.46,4.132,36.645-7.533,54.153-14.11,21.177-37.146,37.752-58.488,55.541-14.445,12.038-28.213,25.511-41.707,38.358-27.1,25.808-40.412,48.7-46.315,80.229-1.452,7.762-8.847,55.856-32.242,48.544-9.407-2.94-13.149-13.25-15.146-19.531-3.15-9.9-3.43-20.242-1.984-30.31,1-6.982,3.468-13.419,6.113-19.874,1.689-4.123,3.451-8.256,4.957-12.54,1.552-4.427,2.53-7.937,5.632-12.1,3.866-5.2,7.832-10.365,11.242-15.722,18.018-28.309,31.823-56.782,40.195-87.313,8.364-30.51,9.853-62.172,6.626-93.111a180.264,180.264,0,0,0-60.689-117.223,234.171,234.171,0,0,0-29.163-21.486c-7.724-4.871-15.237-10.521-24.058-14.369q-4.89-2.133-9.878-4.051c-18.278-7.039-37.522-12.08-57.495-16.627A420.815,420.815,0,0,0,0,161.557v7.253c.243.024.485.045.728.069,17.428,1.722,34.689,4.182,51.831,6.961,39.636,6.423,78.052,25.732,105.34,46.4a191.826,191.826,0,0,1,15.509,13.031c28.23,26.516,44.144,56.714,50.805,89.2,16.638,81.137-5.869,156.915-65.723,227.065-33.047,38.73-76.373,71.205-125.261,100.28Q17.067,661.428,0,669.877v34.277q3.7-2.458,7.32-4.93C24.9,687.244,37.9,674.4,52.473,660.776c24.372-22.786,66.041-20.388,84.6,5.577,15.671,21.923.739,51.039-1.873,74.037-2.122,18.651-21.654,37.133-31.6,54.136-14.889,25.456-32.375,50.124-51.406,74.161-10.435,13.184-21.339,26.182-32.551,39.045C13.061,915.279,6.49,922.824,0,930.4v79.521c13.638-23.907,29.832-46.967,46.93-69.776,23.932-31.922,48.488-63.656,70.529-96.224,31.142-46.014,55.011-91.912,79.308-139.881,30.04-59.315,27.26-138.34,96.527-183.514,25.263-16.476,51.861-28.172,75.056-47.473,54.058-44.976,94.762-96.716,141.327-145.44,20.574-21.528,38.514-41.672,63.855-60.39,28.083-20.742,54.353-42.656,79.424-65.226,52.995-47.705,126.976-57.584,203.482-78.493,29.235-7.992,75.458-18.572,95.508-37.035,13.227-12.181,5.713-13.6-13.572-10.127-32.612,5.877-63.519,20.4-93.673,30.54a924.777,924.777,0,0,1-113.223,30.035c-35.9,7.207-73.133,12.715-106.088,25.517-31.781,12.35-51.171,31.9-77.9,48.426-18.086,11.184-35.631,19.7-48.906,34.241-19.545,21.408-33.485,45.33-52.69,66.988-18.585,20.955-37.413,37.158-48.564,32.086-13.324-6.059,1.435-28.9,5.791-35.577a127.452,127.452,0,0,1,13.554-17.1,240.128,240.128,0,0,1,27.768-24.914c31.514-24.684,50.645-54.071,78.327-80.373,9.138-8.685,20.542-13.1,33.306-18.7,19.594-8.6,37.3-19.1,56.963-27.672a421.75,421.75,0,0,1,76.393-25.127c23.451-5.257,47.138-9.982,70.631-15.152,39.245-8.634,74.909-23.142,113.595-31.728,36.512-8.1,66.642-26.685,93.658-45.093A254.248,254.248,0,0,0,995.627,0H946.213C906,18.639,862.561,33.135,816.986,45.062c-30.735,8.045-61.454,16.153-91.827,24.844" transform="translate(0 -0.001)" fill="#fff" fill-rule="evenodd"/>
      <path id="Tracciato_209" data-name="Tracciato 209" d="M560.072,1292.933c38.889-17.2,81.273-28.936,124.479-39.311,1.09-.259,2.185-.509,3.278-.769,23.95-5.652,48.354-10.412,72.011-16.6,22.726-5.945,45.058-12.8,66.909-20.212,30.663-10.4,58.737-23.764,83.594-40.237,39.071-25.9,65.362-57.3,79.732-93.64,13.087-33.094,17.368-66.584,7.173-100.483-10.713-35.619-37.8-63.144-82.705-81.66-31.934-13.168-66.315-21.635-102.773-25.523-93.614-9.985-181.845,2.021-264.689,33.783C502.4,925.408,470.417,951.1,449.7,983.753c-12.911,20.35-21.76,41.649-24.393,63.811-1.48,12.474-1.135,24.629-3.194,37.012-1.753,10.545-1.047,21.615-1.277,32.224-.944,43.778-5.735,87.174-22.951,129.447-10.137,24.883-21.2,49.629-40.92,71.792a222.512,222.512,0,0,1-39.352,34.931H336.85c45.415-35.043,52.962-78.57,83.5-118.682,11.906-15.636,25.927-29.806,33.89-46.974,11.19-24.131,10.965-49.9,10.982-75.025.014-22.089-3.789-44.192-3.013-66.267,1.083-30.8,42.475-68.848,73.471-89.066,30.108-19.638,80.775-29.8,120.021-33.375,32.5-2.959,71.839-6.439,102.817,3.545,53.968,17.4,97.653,54.185,75.943,98.284-15.766,32.028-54.905,38.414-95.561,48.505-23.224,5.763-46.481,11.474-69.488,17.658-36.093,9.7-70.751,19.786-100.123,38.1-15.213,9.487-23.686,25.259-37.3,36.2-19.7,15.839-27.708,38.076-44.348,55.771-6.836,7.27-28.88,26.77-23.384,36.688,5.147,9.289,17.367,3.233,25.816-1.461,38.4-21.337,61.373-57.324,95.036-82.38,46.822-34.851,97.549-65.01,165.565-76.193,31.754-5.22,63.811-8.289,93.533-18.331,23.187-7.835,34.264-25.7,34.86-42.816.6-17.372-7.612-33.87-17.48-49.534-8.786-13.946-19.818-25.939-23.1-41.1-1.555-7.2-2.6-16.233,5.6-21.757,23.8-16.023,53.794,10.349,63.977,24.137,5.837,7.9,9.549,15.137,17.881,22.091,10.047,8.383,19.226,16.711,26.963,26.273,8.227,10.168,15.414,21.367,14.558,33.393-2.014,28.234-30.4,54.614-62.74,69.834-20.517,9.654-43.5,15.859-67.732,18.985-40.162,5.18-71.091,17.881-107.27,30.638-32.189,11.351-64.61,22.388-96.488,34.156q-13.928,5.142-27.217,10.939c-26.094,11.416-50.118,24.862-71.1,40.951a477.89,477.89,0,0,0-42.54,36.909c-24.628,23.992-47.832,48.711-72.271,72.8q-3.659,3.609-7.46,7.1h50.446c13.354-9.926,26.983-19.672,40.728-29.322,16.87-11.844,36.045-21.787,56.236-30.715" transform="translate(133.112 -0.001)" fill="#fff" fill-rule="evenodd"/>
      <path id="Tracciato_210" data-name="Tracciato 210" d="M375.447,121.226c-51.136,20.381-101,40.341-142.134,70.474a107.312,107.312,0,0,0-15.287,13.464c-14.862,15.984-20.655,33.427-26.523,53.83-4.379,15.23-14.492,40.873-7.381,56.142,8.973,19.268,30.1,5.16,40.671-5.265,19.49-19.235,35.155-44.337,44.38-68.664a155.967,155.967,0,0,0,6.352-20.856c6.455-28.643,37.75-43.267,71.521-58.374,69.4-31.044,136.515-64.283,199.788-101.336A631.677,631.677,0,0,1,667.245,5.916Q676.518,2.832,685.927,0H606.891c-29.828,13.381-57.09,29.183-83.452,45.787a906.382,906.382,0,0,1-147.992,75.438" transform="translate(76.134 -0.001)" fill="#fff" fill-rule="evenodd"/>
      <path id="Tracciato_211" data-name="Tracciato 211" d="M109.474,365.515c-18.741,23.361-45.813,41.135-76.62,56.346-10.728,5.3-21.7,10.287-32.854,15.058V539.505c30.61-10.39,58.639-23.738,83.456-40.188,39.072-25.9,65.362-57.294,79.732-93.64,13.088-33.094,17.368-66.584,7.174-100.482-10.713-35.62-37.8-63.146-82.7-81.659A366.243,366.243,0,0,0,0,199.913v7.145c38.377,6.7,73.776,17.848,102.669,37.588,27.959,19.1,40.117,42.371,33.582,69.777-4.333,18.174-13.938,35.086-26.777,51.092" transform="translate(0 -0.001)" fill="#fff" fill-rule="evenodd"/>
      <path id="Tracciato_212" data-name="Tracciato 212" d="M128.816,553.866c44.963-40.309,70.742-86.328,81.171-136.757,8.7-42.059,7.134-83.783-11.563-124.6-21.731-47.434-65.186-80.559-131.582-98.428A435.267,435.267,0,0,0,0,181.618v7.7A441.932,441.932,0,0,1,62.9,201.76c32.13,8.9,60.925,21.313,83.735,39.95,25.584,20.9,40.324,45.451,48.065,72.173,13.115,45.272,8.678,90.06-9.663,134.2C155.471,519.233,91.917,568.2,0,597.9v25.775c50.827-15.718,94.221-38.788,128.816-69.806" transform="translate(0 -0.001)" fill="#fff" fill-rule="evenodd"/>
      <path id="Tracciato_213" data-name="Tracciato 213" d="M27.467,17.233c-1.767.631-3.668,1.249-5.736,1.852A109.882,109.882,0,0,1,0,22.979V54.831c20.15-.435,40.087,1.717,58.549,8.4,25.7,9.307,50.045,24.608,78.266,31.05a120.377,120.377,0,0,0,14.326,2.41c13.832,1.45,83.208-12.808,63.894-23.308a184.986,184.986,0,0,0-21.017-9.455c-30.671-11.971-58.72-26.385-81.279-45.381C105.472,12.433,98.263,6.259,91.207,0H44.256c1.687,6.666-3.172,12.374-16.789,17.232" transform="translate(0 -0.001)" fill="#fff" fill-rule="evenodd"/>
      <path id="Tracciato_214" data-name="Tracciato 214" d="M1375.173,102.13c-37.355,4.115-70.724,15.384-109.379,16.027-2.982.049-6.037.09-9.132.145-22.765.415-47.734,1.771-62.255,15.3,7.611,5.347,18.742,6.927,30.65,6.972,14.845.057,30.9-2.277,42.865-2.7,37.708-1.332,75.537.832,113.186-2.256a315.748,315.748,0,0,1,38.313-.578V100.888a278.05,278.05,0,0,0-44.249,1.242" transform="translate(500.578 -0.001)" fill="#fff" fill-rule="evenodd"/>
      <path id="Tracciato_215" data-name="Tracciato 215" d="M1406.524,187.581c-26.483,4.288-52.669,9.71-77.792,17.048-39.3,11.475-70.369,26.882-102.11,46.673-33.99,21.189-92.008,39.287-106.271,71.72-21.451,48.778,37.818,91.881,33.231,140.444-6.438,68.132-55.967,195.1-188.265,169.38-85.436-16.613-79.552-75.531-83.775-126.841q-.87-10.556-1.761-21.112c-3.287-38.679-9.639-77.132-17.19-115.494-6.892-35.021-14.295-70-20.969-105.04-4.964-26.068-12.714-63.186,5.594-87.427,17.422-23.066,30.88-47.354,48.164-70.813C910.931,85.01,931.813,66.86,957.8,51.677c32.753-19.135,69.38-33.759,108.262-45.671q10.273-3.148,20.69-6.005H953.8A221.908,221.908,0,0,0,933.59,15.229C910.919,34.522,893.224,56,878.193,78.577c-14.028,21.071-26.175,42.678-37.72,64.451-7.572,14.279-14.889,28.629-22.3,42.95-14.263,27.57-24.282,55.975-28.622,85.175s-8.08,58.438-10.761,87.721a493.213,493.213,0,0,0,.99,100.745,606.109,606.109,0,0,0,21.294,103.087q6.047,20.514,13.359,40.871c6.839,19.043,14.817,37.838,27.6,55.422,21.854,30.066,57.011,44.822,104.72,44.955a222.837,222.837,0,0,0,64.674-9.508c45.5-13.586,78.552-36.76,101.657-67.086,22.168-29.092,35.577-60.363,44.476-92.7,10.073-36.613,11.524-73.715,13.571-110.805,1.8-32.646,1.389-67.955,14.789-99.449,13.1-30.8,37.69-57.507,71.832-78.748,20.269-12.608,43.582-22.55,68.125-30.508,57.434-18.615,118.038-28.254,181.167-29.822a584.438,584.438,0,0,1,87.448,3.984v-7.694c-.315-.036-.626-.077-.939-.109-62.895-6.61-125.219-3.935-187.026,6.071" transform="translate(325.51 -0.001)" fill="#fff" fill-rule="evenodd"/>
      <path id="Tracciato_216" data-name="Tracciato 216" d="M1351.253,231.8c-44.676,17.129-76.663,42.816-97.379,75.473-12.912,20.351-21.76,41.648-24.394,63.812-1.48,12.475-1.132,24.627-3.194,37.011-1.754,10.546-1.049,21.614-1.277,32.226-.944,43.776-5.733,87.171-22.951,129.445-10.135,24.883-21.194,49.629-40.921,71.791-40.346,45.33-97.133,73.273-173.523,79.084-45.787,3.482-88.23-3.561-125.026-24.084-67.413-37.6-82.551-111.447-92.679-167.69-10.524-58.431-19.594-111.3-8.584-170.068,5.441-29.047,10.788-58.1,16.951-87.084,9.162-43.076,49.876-80.966,66.884-122.772,6.8-16.7,16.281-31.488,25.334-47.532,18.3-32.428,38.923-64.08,60.452-95.5Q932.991,2.927,935.123,0H918.176c-15.783,24.837-31.253,49.77-45.641,75-20.336,35.67-40.319,70.453-61.783,105.841C795.3,206.327,779.345,231.659,762.6,256.73,740.365,290,721.154,324.146,707.271,359.7c-19.383,49.647-24.285,99.748-8.185,150.205,12.316,38.6,31.948,75.076,57.976,109.586a487.262,487.262,0,0,0,33.2,39.369c18.264,19.536,41.438,36.573,66.79,51.582,23.77,14.075,40.583,25.02,71.5,29.237,34.493,4.7,68.02,5.484,103.095,3.957,116.749-5.088,166.167-120.182,188.035-185.93,10.676-32.09,15.463-65.607,16.138-98.551,1.074-52.445-1.047-103.673,30.959-152.492,17.181-26.209,42.333-47.445,76.524-63.394,28.338-13.221,59.036-22.893,91.438-29.8,63-13.438,126.831-17.844,191.657-7.2q2.337.384,4.662.793v-7.146q-7.5-1.08-15.119-1.9c-93.612-9.987-181.845,2.021-264.689,33.783" transform="translate(288.939 -0.001)" fill="#fff" fill-rule="evenodd"/>
      <path id="Tracciato_217" data-name="Tracciato 217" d="M1481.89,22.968c-11.9-.771-23.825-2.253-35.558-3.381-45.921-4.412-82.982,7.73-125.847,16.757-43.727,9.208-86.579,20.095-127.542,34.309-46.219,16.039-90.215,34.722-131.014,57-26.567,14.51-49.955,30.953-65.919,52.174-10.037,13.344-14.187,27.006-16.033,41.9-1.771,14.288,10.306,84.876,46.21,76.036,24.278-5.978,39.715-27.945,56.988-40.007,34.64-24.188,71.626-46.036,118.072-58.875,16.516-4.567,32.974-9.184,49.711-13.183,11.587-2.768,23.307-5.242,35.282-7.187,58.1-9.431,116.757-15,176.65-12.73,15.541.59,31.052,1.522,46.47,3.027v-7.252c-13.121-1.3-26.35-2.212-39.634-3.013-59.777-3.608-118.624,1.548-177.287,8.32q-9.089,1.048-18.1,2.358a473.114,473.114,0,0,0-66.028,14.134c-18.254,5.385-39.567,5.521-57.267,11.235-14.048,4.535-28.633,12.855-44.455,13.656-29.56,1.494-11.909-18.856-1.914-27.463,24.863-21.406,55.637-38.018,88.291-52.982,36.413-16.684,76.271-28.147,117.567-37.111,35.739-7.757,71.54-15.665,107.595-22.792q19.073-3.772,38.255-7.215c17.248-3.071,35.194-5.47,52.977-5.854V22.979a186.575,186.575,0,0,1-27.47-.011" transform="translate(410.639 -0.001)" fill="#fff" fill-rule="evenodd"/>
      <path id="Tracciato_218" data-name="Tracciato 218" d="M1509.3,507.788q-13.932,5.145-27.221,10.939c-26.092,11.418-50.117,24.862-71.094,40.952a477.929,477.929,0,0,0-42.542,36.909c-24.627,23.991-47.831,48.71-72.269,72.8-37.056,36.531-84.691,64.1-143.678,81.384-25.2,7.383-51.041,13.672-76.607,20.428-24.237,6.406-48.7,12.406-72.681,19.262a163.093,163.093,0,0,0-27.789,10.556c-7.648,3.817-14.715,11.747-22.2,14.713a39.351,39.351,0,0,1-6.911,1.936c-15.779,3.078-39.785.666-53.687-.658-31.94-3.041-56.357-17.508-84.715-27.577-32.544-11.552-73.262-14.777-109.208-10.818C661.335,782.729,627.966,794,589.312,794.64c-2.983.05-6.037.089-9.131.144-22.767.416-47.736,1.773-62.256,15.3,7.611,5.349,18.741,6.93,30.65,6.974,14.845.057,30.9-2.279,42.865-2.7,37.708-1.332,75.536.832,113.186-2.256,32.348-2.654,72.222.793,103.332,7.434,18.647,3.98,38.182,7.643,56.442,12.6,13.535,3.672,25.051,9.453,38.321,13.5,25.978,7.918,57.432,9.834,83.213.439.152-.054.287-.113.436-.168,13.384-4.978,19.034-11.64,27.87-19.582,11.651-10.467,30.858-18.771,47.679-24.359q37.973-12.615,77.226-23.3c68.95-18.719,128.535-46.8,178.13-85.533,20.18-15.762,41.263-30.979,62.609-45.967,16.869-11.842,36.045-21.785,56.236-30.715,38.89-17.2,81.275-28.933,124.479-39.31,1.09-.26,2.184-.51,3.277-.768,23.95-5.654,48.354-10.414,72.012-16.6,22.725-5.946,45.056-12.8,66.908-20.213.048-.016.094-.034.141-.049V436.917c-31.416,13.445-64.258,25.116-97.156,36.717-32.188,11.349-64.607,22.386-96.485,34.154" transform="translate(217.063 -0.001)" fill="#fff" fill-rule="evenodd"/>
      <path id="Tracciato_219" data-name="Tracciato 219" d="M1471.325,1102.335c-2.678,38.109,5.228,74.367,18.475,110.955,3.689,10.191,6.419,38.283-16.9,39.244-15.928.658-36.245-17.933-44.348-25.879-33.98-33.322-36.414-71.9-55.622-108.617a92.333,92.333,0,0,0-25.758-30.806,182.376,182.376,0,0,0-62.239-31.188c-28.7-8.158-78.377-4.48-103.947,8.99-4.11,2.164-8.329,4.723-12.481,7.471a219.758,219.758,0,0,0-21.353,16.168c-27.37,23.519-46.752,48.834-77.88,70.07-20.888,14.248-42.227,28.17-63.061,42.457-20.97,14.383-41.52,29.069-62.337,43.565-27.267,18.988-49.864,40.445-65.628,65.045-9.216,14.38-18.474,28.754-27.63,43.16h16.946c28.958-39.971,69.076-72.776,122.647-97.864q91.706-42.948,182.17-87.212c22.083-10.758,50.191-28.659,79.155-36.881,23.35-6.631,47.258-6.975,69.018,7.8,13.362,9.07,25.811,18.187,31.131,30.886,5.4,12.887,9.061,22.481,2.613,33.727a42.921,42.921,0,0,1-5.835,7.742c-10.743,11.584-27.584,21.887-46.606,25.906-16.139,3.408-32.919,4.252-49.07,8.092-26.077,6.2-51.325,14.143-76.986,21.129-29.446,8.021-59.037,15.789-88.519,23.748-35.614,9.615-71.237,19.184-104.659,32.313-21.824,8.572-41.934,18.621-59.811,30.615h132.96c42.422-11.723,86.331-20.428,129.551-30.531,52.938-12.375,109.23-29.145,165.821-30,23.035-.348,44.886,1.914,67.629,3.822,18.553,1.557,35.938.7,54.587,3.336,7.213,1.019,14.567,2.06,21.954,3.2,23.553,3.635,47.448,8.287,68.191,16.551v-74.9a268.353,268.353,0,0,1-19.744-42.886c-20.742-58.6-18.688-116.567,10.148-173.8q4.536-9,9.6-17.832V930.4c-22.747,26.559-44.406,53.51-61.162,82.3-16.906,29.045-28.8,58.121-31.017,89.633" transform="translate(356.496 -0.001)" fill="#fff" fill-rule="evenodd"/>
      <path id="Tracciato_220" data-name="Tracciato 220" d="M1771.563,721.546c-30.736,8.045-61.454,16.152-91.827,24.844-28.267,8.088-56.187,16.967-81.428,29.158-30.843,14.9-61.373,30.164-91.186,46.064-33.921,18.094-67.132,36.879-96.418,58.791-11.888,8.9-23.662,18.958-28.737,30.8-3.735,8.723-5.288,15.387-13.042,23.131-6.241,6.234-12.86,12.272-19.322,18.389-.764.724-1.534,1.443-2.292,2.17-11.323,10.845-22.091,22.59-29.776,34.918-4.037,6.48-5.72,13.738-9.822,20.306a141.353,141.353,0,0,1-14.062,18.549c-6.779,7.67-13.371,14.4-26.025,16.8a56.046,56.046,0,0,0-31.545,18.635c-13.149,16.107-20.526,34.013-28.865,51.56-8.869,18.662-15.568,37.76-21.785,56.932-2.187,6.746-4.816,13.418-6.837,20.191q-1.111,3.725-2.153,7.448c-5.76,20.406-10.206,40.808-14.1,61.589-1.453,7.762-8.847,55.856-32.243,48.543-9.407-2.939-13.149-13.25-15.145-19.529-3.15-9.9-3.431-20.244-1.984-30.311,1-6.982,3.467-13.42,6.112-19.875,1.69-4.125,3.453-8.255,4.957-12.541,1.552-4.427,2.532-7.935,5.634-12.1,3.866-5.2,7.832-10.365,11.241-15.723,18.02-28.308,31.825-56.781,40.2-87.312,8.364-30.512,9.853-62.172,6.627-93.112a180.311,180.311,0,0,0-60.692-117.224,234.45,234.45,0,0,0-29.161-21.485c-7.724-4.871-15.238-10.521-24.058-14.369q-4.889-2.133-9.878-4.05c-18.279-7.041-37.522-12.081-57.5-16.629-29.74-6.77-60.482-9.2-91.512-11.078-36.277-2.188-72.591-1.1-108.737,1.656-41.269,3.142-59.815,2.7-96.507-10.834-35.969-13.258-70.657-17.5-104.5.193-20.011,10.463-41.371,26.235-52.764,41.9-7.463,10.264-6.863,24.893-21.359,31.663-14.452,6.75-40.595,4.371-47.347-7.633-4.781-8.5,3.438-24.012,8.972-31.824,31.8-44.893,87.252-62.446,147.994-83.491,57.95-20.078,125.04-43.433,190.791-36.57,61.078,6.373,122.529-21.783,181.645-.369,25.7,9.308,50.043,24.607,78.262,31.051,19.957,4.554,49.886,1.48,66.371-8.432,25.511-15.342-9.427-21.551-26.625-29.162-23.74-10.51-45.772-22.944-63.821-38.141-17.385-14.64-34.5-29.562-49.741-45.315q-4.049-4.182-7.965-8.405c-33.357-35.913-59.9-74.215-74.775-116.245-20.74-58.6-18.685-116.566,10.148-173.8,15.3-30.362,35.218-59.18,56.526-87.608,23.932-31.922,48.488-63.656,70.529-96.224,31.141-46.012,55.01-91.912,79.3-139.881,4.619-9.118,9.036-18.29,12.937-27.555h-67.568c6.46,20.251-4.706,44.3-6.935,63.906-2.12,18.649-21.653,37.131-31.6,54.137-14.891,25.455-32.378,50.121-51.407,74.158-10.436,13.184-21.338,26.184-32.55,39.045-29.639,34-59.266,67.967-80.8,104.971-16.9,29.045-28.8,58.122-31.016,89.633-2.678,38.11,5.227,74.367,18.472,110.957,3.69,10.189,6.42,38.281-16.894,39.243-15.929.657-36.247-17.935-44.35-25.88-33.982-33.32-36.413-71.9-55.622-108.617a92.321,92.321,0,0,0-25.758-30.807,182.345,182.345,0,0,0-62.238-31.185c-28.7-8.16-78.377-4.483-103.946,8.988-4.11,2.166-8.33,4.723-12.481,7.471a220.054,220.054,0,0,0-21.353,16.167c-27.372,23.52-46.754,48.835-77.88,70.071-20.888,14.248-42.228,28.17-63.061,42.458-20.971,14.382-41.523,29.067-62.337,43.563-27.267,18.989-49.866,40.446-65.629,65.043-25.1,39.176-50.538,78.295-73.27,118.166-20.336,35.67-40.322,70.452-61.785,105.84-15.453,25.483-31.406,50.815-48.156,75.885-22.23,33.273-41.442,67.416-55.325,102.971C11.4,1085.833,6.5,1135.933,22.6,1186.392c12.315,38.6,31.95,75.074,57.976,109.586a487.25,487.25,0,0,0,33.2,39.367c5.681,6.076,11.666,11.978,18.077,17.625h25.73a180.9,180.9,0,0,1-16.913-16.875,419.893,419.893,0,0,1-40.427-53.975,407.652,407.652,0,0,1-44.88-98.381c-13.528-44.214-11.543-88.619.559-132.941,12.02-44.016,32.192-86.262,55.521-127.8,18.176-32.363,43.907-64.82,57.235-97.578,6.8-16.7,16.281-31.488,25.334-47.531,18.294-32.428,38.922-64.08,60.452-95.5,29.235-42.659,70.634-77.455,126.824-103.77q91.707-42.946,182.17-87.211c22.081-10.759,50.189-28.66,79.153-36.883,23.35-6.63,47.26-6.972,69.017,7.8,13.364,9.074,25.813,18.191,31.134,30.888,5.4,12.887,9.06,22.48,2.613,33.727a42.841,42.841,0,0,1-5.835,7.742c-10.745,11.584-27.586,21.888-46.608,25.906-16.138,3.408-32.916,4.253-49.07,8.092-26.077,6.2-51.325,14.142-76.983,21.131-29.449,8.018-59.04,15.787-88.522,23.746-35.614,9.615-71.236,19.185-104.659,32.312-30.488,11.975-57.655,26.813-80.017,45.842-22.673,19.3-40.365,40.774-55.4,63.348-14.031,21.072-26.177,42.679-37.721,64.451-7.572,14.279-14.888,28.629-22.3,42.949-14.265,27.572-24.284,55.977-28.622,85.178-4.337,29.185-8.08,58.435-10.761,87.721a493.2,493.2,0,0,0,.989,100.744,606.438,606.438,0,0,0,21.294,103.088q6.05,20.512,13.359,40.869c6.839,19.045,14.818,37.838,27.6,55.422A99.743,99.743,0,0,0,218.3,1352.97h63.9c-12.348-7.022-19.318-16.947-22.43-28.26a322.031,322.031,0,0,1-9.912-50.783c-3.284-30.449-5.722-60.947-8.234-91.438q-.868-10.555-1.76-21.111c-3.288-38.68-9.639-77.133-17.19-115.494-6.9-35.023-14.3-70-20.969-105.041-4.965-26.07-12.714-63.186,5.6-87.426,17.422-23.068,30.877-47.357,48.16-70.814,15.555-21.112,36.437-39.26,62.425-54.442,32.753-19.134,69.38-33.759,108.262-45.672C474.88,667.562,526.1,657.71,576.4,645.954c52.937-12.373,109.228-29.144,165.818-30,23.036-.347,44.888,1.914,67.632,3.823,18.552,1.556,35.936.7,54.586,3.335,7.211,1.02,14.564,2.061,21.949,3.2,27.025,4.172,56.121,8.781,79.891,19.22,15.214,6.682,41.248,23.578,30.723,37.875-7.768,10.551-42.417,14.407-57.777,15.534-28.654,2.1-56.944-5.438-85.873-3.28-29.9,2.231-59,11.137-87.647,17.168-43.724,9.207-86.578,20.094-127.539,34.309-46.217,16.039-90.215,34.723-131.014,57.006-49.172,26.853-78.16,62.338-94.451,104.408-16.555,42.76,14.92,90.992,17.1,134.35.744,14.82-8.657,103.447,37.6,91.611,38.967-9.973,19.91-67.592,18.138-87.641-2.754-31.185,7.331-77.054,32.04-103.711,27.182-29.32,83.476-55.234,128.9-67.793,16.513-4.566,32.97-9.183,49.707-13.183,11.587-2.768,23.307-5.242,35.28-7.188,58.1-9.431,116.761-15,176.653-12.728,15.783.6,31.538,1.549,47.2,3.095,17.427,1.723,34.688,4.182,51.831,6.961,39.634,6.422,78.051,25.733,105.338,46.4a191.778,191.778,0,0,1,15.509,13.033c28.23,26.516,44.144,56.713,50.805,89.2,16.639,81.137-5.868,156.912-65.723,227.065-33.047,38.728-76.373,71.2-125.26,100.279q-17.936,10.667-36.972,19.91-4.983,2.429-10.044,4.762H990.2c5.621-5.113,11.114-10.352,16.845-15.709,24.372-22.787,66.041-20.389,84.6,5.576a36.148,36.148,0,0,1,5.059,10.133h67.568c6.436-15.291,11.466-30.832,13.659-46.793,4.04-29.41.874-58.33,16.853-86.252,4.516-7.889,9.251-14.979,12.054-23.223,3.072-9.029,13.247-17.3,20.154-25.074a257.388,257.388,0,0,1,22.774-23.062c.593-.52,1.179-1.045,1.782-1.559,9.76-8.309,21.221-15.4,32.519-22.615,3.509-2.24,7-4.494,10.426-6.8,13.216-8.9,25.768-18.279,38.391-27.6q7.184-5.3,14.435-10.554c13.127-9.452,26.617-18.643,40.074-27.858q7.993-5.469,15.949-10.97c11.922-8.272,23.661-16.67,35.377-25.084l8.049-5.786q7.6-5.457,15.214-10.9c11.938-8.52,22.889-16.76,34.511-24.137,14.415-9.146,29.862-16.963,49.521-22.312,29.894-8.139,59.1-18.793,86.859-.686,31.119,20.3,43.338,49.817,60.875,76.073,21.719,32.517,59.653,60.015,63.4,96.777,1.3,12.756,4.616,64.371,35.6,60.506,21.758-2.715,7.758-32.278,6.508-41.885-2.787-21.41,1.111-41.545,3.634-62.816,3.318-27.965-3.583-58.862-8.631-86.586-5.2-28.541-32.831-49.411-51.147-74.256-10.713-14.53-24.986-20.776-47.466-26.059-54.205-12.738-111.223,1.5-156.593,23.4-23.517,11.347-172.34,120.556-192.454,99.707-6.83-7.078,6.616-24.62,11.1-31.5a127.418,127.418,0,0,1,13.544-17.084,240.54,240.54,0,0,1,27.765-24.916c31.515-24.684,50.646-54.069,78.329-80.374,9.139-8.683,20.541-13.1,33.308-18.7,19.592-8.6,37.3-19.1,56.961-27.674A422.06,422.06,0,0,1,1644.01,791.2c23.452-5.255,47.14-9.982,70.631-15.15,39.247-8.635,74.91-23.143,113.595-31.728,33.251-7.381,61.206-23.45,86.34-40.165V669.876q-1.869.929-3.742,1.848c-42.982,20.965-89.879,36.9-139.271,49.822" transform="translate(5.423 -0.001)" fill="#fff" fill-rule="evenodd"/>
      <path id="Tracciato_221" data-name="Tracciato 221" d="M1481.479,618.783c-22.054,5.173-44.222,10.14-66.208,15.44-38.641,9.317-76.545,19.846-112.278,33.975-37.683,14.9-71.036,33.9-103.071,54.072a906.109,906.109,0,0,1-147.991,75.44C1000.8,818.091,950.925,838.05,909.8,868.184a107.111,107.111,0,0,0-15.288,13.463c-14.862,15.985-20.656,33.428-26.523,53.83-4.379,15.231-14.492,40.871-7.381,56.141,8.973,19.27,30.1,5.16,40.67-5.264,19.491-19.234,35.157-44.338,44.382-68.664a155.755,155.755,0,0,0,6.349-20.855c6.455-28.645,37.75-43.266,71.523-58.375,69.4-31.043,136.515-64.283,199.788-101.336A631.549,631.549,0,0,1,1343.729,682.4c35.68-11.863,72.946-20.8,110.043-30.115,18.431-4.629,36.875-9.273,55.2-14.127,15.861-4.2,31.633-8.557,47.215-13.217,1.395-.416,2.779-.842,4.164-1.269V597.9q-12.306,3.977-25.26,7.508c-17.688,4.8-35.612,9.154-53.612,13.378" transform="translate(359.649 -0.001)" fill="#fff" fill-rule="evenodd"/>
      <path id="Tracciato_222" data-name="Tracciato 222" d="M793.907,1314.64c15.861-4.2,31.633-8.557,47.215-13.215,52.626-15.734,97.441-39.215,132.978-71.074,44.963-40.311,70.739-86.33,81.172-136.756,8.7-42.062,7.131-83.785-11.566-124.6-21.728-47.436-65.185-80.559-131.579-98.428a435.594,435.594,0,0,0-67.783-12.572c-62.895-6.61-125.219-3.936-187.025,6.072-26.483,4.287-52.667,9.707-77.789,17.045-11.631,3.4-23.036,7.324-34.582,10.623-.25.072-.5.146-.749.216-11.506,3.26-19.585,9.1-29.716,14.122a281.3,281.3,0,0,0-32.219,18.568c-19.168,12.918-35.375,27.963-47.372,44.648a139.161,139.161,0,0,0-23.107,51.487c-4.165,18.883-2.773,37.254-3.783,56.332-1.223,23.1-2.354,46.2-4.4,69.267-4.056,45.643-14.287,90.344-40.884,132.633-12.556,19.969-27.3,38.717-49.849,53.973a175.732,175.732,0,0,1-39.149,19.99h32.306a179.067,179.067,0,0,0,57.855-49.125c22.165-29.092,35.574-60.363,44.475-92.7,10.073-36.613,11.525-73.715,13.572-110.807,1.8-32.644,1.388-67.955,14.787-99.449,13.1-30.8,37.69-57.506,71.832-78.746,20.268-12.609,43.581-22.553,68.125-30.51,57.434-18.613,118.038-28.252,181.167-29.82,51.562-1.281,101.987,3.033,150.345,16.43,32.131,8.9,60.925,21.314,83.734,39.951,25.586,20.9,40.325,45.449,48.066,72.172,13.115,45.273,8.676,90.06-9.661,134.2-32.2,77.506-104.708,128.707-210.3,157.328-17.689,4.8-35.612,9.154-53.612,13.377-22.054,5.174-44.222,10.139-66.208,15.441-38.642,9.317-76.545,19.846-112.279,33.973q-10.009,3.955-19.618,8.289h79.037c29.909-9.053,60.691-16.5,91.362-24.2,18.431-4.627,36.875-9.272,55.2-14.127" transform="translate(114.716 -0.001)" fill="#fff" fill-rule="evenodd"/>
    </g>
  </g>
</svg>
