<svg xmlns="http://www.w3.org/2000/svg" width="17" height="17" viewBox="0 0 17 17">
  <g id="account" transform="translate(0)">
    <path id="Tracciato_202" data-name="Tracciato 202" d="M12212.1,19118.1v-2.975c0-1.117.906-2.154,2.548-2.922a15.926,15.926,0,0,1,11.905,0c1.645.768,2.547,1.8,2.547,2.922v2.975Zm3.494-4.729c-1.254.48-1.968,1.123-1.968,1.754v1.451h13.952v-1.451c0-.631-.715-1.273-1.969-1.754a16.171,16.171,0,0,0-10.016,0Zm.927-8.191a4.079,4.079,0,1,1,4.079,4.078A4.09,4.09,0,0,1,12216.52,19105.18Zm1.525,0a2.555,2.555,0,1,0,2.554-2.555A2.558,2.558,0,0,0,12218.045,19105.18Z" transform="translate(-12212.099 -19101.1)" fill="#18181a"/>
  </g>
</svg>
