<svg xmlns="http://www.w3.org/2000/svg" width="11.996" height="12.001" viewBox="0 0 11.996 12.001">
  <path id="Tracciato_230" data-name="Tracciato 230" d="M3874.088,13514.65l-2.073-4.668-4.669-2.074a.585.585,0,0,1,.043-1.084l10.818-3.787a.576.576,0,0,1,.617.135.282.282,0,0,1,.026.027.027.027,0,0,1,.005.008.181.181,0,0,1,.021.025s0,0,0,0a.581.581,0,0,1,.077.561l-3.785,10.813a.589.589,0,0,1-.526.391.066.066,0,0,1-.02,0A.6.6,0,0,1,3874.088,13514.65Zm.471-1.82,2.463-7.031-3.87,3.873Zm-5.393-5.393,3.16,1.406,3.864-3.861Z" transform="translate(-3867.001 -13502.999)" fill="#18181a"/>
</svg>
