<svg xmlns="http://www.w3.org/2000/svg" width="10.943" height="6" viewBox="0 0 10.943 6">
  <g id="arrow-down" transform="translate(-6.343 -15.317)">
    <path id="Tracciato_234" data-name="Tracciato 234" d="M3680.575,11423.868l-4.785-4.663a.661.661,0,0,1,0-.942.68.68,0,0,1,.474-.192.67.67,0,0,1,.474.192l4.325,4.213,4.323-4.213a.673.673,0,0,1,.474-.2.683.683,0,0,1,.474.2.655.655,0,0,1,0,.942l-4.785,4.663a.7.7,0,0,1-.975,0Z" transform="translate(-3669.25 -11402.75)" fill="#18181a"/>
  </g>
</svg>
