<svg xmlns="http://www.w3.org/2000/svg" width="15.216" height="13.5" viewBox="0 0 15.216 13.5">
  <g id="arrow-left" transform="translate(22.417 23.7) rotate(180)">
    <path id="Tracciato_242" data-name="Tracciato 242" d="M-5343.512,10962.535l-6.012-5.933a.746.746,0,0,1-.3-.565c0-.013,0-.024,0-.037s0-.024,0-.036a.75.75,0,0,1,.3-.567l6.012-5.931a.751.751,0,0,1,1.053,0,.731.731,0,0,1,0,1.04l-4.813,4.75h11.927a.738.738,0,0,1,.735.744.739.739,0,0,1-.735.743h-11.93l4.816,4.752a.731.731,0,0,1,0,1.04.747.747,0,0,1-.527.215A.743.743,0,0,1-5343.512,10962.535Z" transform="translate(5357.027 -10939.05)" fill="#fff"/>
  </g>
</svg>
