<svg id="icona_freccia_button" data-name="icona freccia button" xmlns="http://www.w3.org/2000/svg" width="12.118" height="8.452" viewBox="0 0 12.118 8.452">
  <path id="Tracciato_231" data-name="Tracciato 231" d="M4174.5,15506.29a.556.556,0,0,1,0-.793l2.709-2.712h-9.646a.56.56,0,1,1,0-1.119h9.645l-2.708-2.709a.555.555,0,0,1,0-.792.561.561,0,0,1,.793,0l3.631,3.634a.556.556,0,0,1,.187.32h0l0,.025a.017.017,0,0,0,0,0c0,.008,0,.015,0,.021s0,.006,0,.009v.02c0,.006,0,.014,0,.021s0,0,0,.006h0c0,.009,0,.018,0,.028h0c0,.009,0,.018,0,.026s0,0,0,0a.156.156,0,0,1,0,.022v0c0,.009,0,.017,0,.025s0,0,0,0a.561.561,0,0,1-.152.282l-3.665,3.668a.565.565,0,0,1-.4.163A.558.558,0,0,1,4174.5,15506.29Z" transform="translate(-4167.001 -15498.001)" fill="#18181a"/>
</svg>
