<svg xmlns="http://www.w3.org/2000/svg" width="11.506" height="11.5" viewBox="0 0 11.506 11.5">
  <g id="arrow-counter-clockwise" transform="translate(-5.349 -5.352)">
    <path id="Tracciato_250" data-name="Tracciato 250" d="M4967.291,1012.886a5.748,5.748,0,0,1-2.505-2.545.652.652,0,1,1,1.168-.578,4.429,4.429,0,0,0,1.933,1.965,4.309,4.309,0,0,0,2.69.409,4.357,4.357,0,0,0,2.406-1.3,4.447,4.447,0,0,0,1.182-2.513,4.5,4.5,0,0,0-.517-2.741,4.425,4.425,0,0,0-2.007-1.885,4.31,4.31,0,0,0-2.706-.3,4.046,4.046,0,0,0-2.265,1.352.169.169,0,0,1-.018.021c-.024.026-.1.1-.188.223l1.434-.258a.651.651,0,1,1,.23,1.281l-2.855.514a.616.616,0,0,1-.116.01.654.654,0,0,1-.643-.539l-.5-2.907a.652.652,0,0,1,1.284-.223l.214,1.23c.082-.1.149-.176.189-.218a5.3,5.3,0,0,1,2.962-1.761,5.626,5.626,0,0,1,3.53.39,5.8,5.8,0,0,1,1.744,9.211,5.668,5.668,0,0,1-3.132,1.692,5.523,5.523,0,0,1-.951.081A5.617,5.617,0,0,1,4967.291,1012.886Z" transform="translate(-4958.65 -996.648)" fill="#18181a"/>
  </g>
</svg>
