<svg xmlns="http://www.w3.org/2000/svg" width="12.32" height="14" viewBox="0 0 12.32 14">
  <path id="Tracciato_241" data-name="Tracciato 241" d="M19.261,8.751h-2.38v-.28a3.22,3.22,0,0,0-6.44,0v.28H8.061a.559.559,0,0,0-.56.56v9.38a.559.559,0,0,0,.56.56h11.2a.559.559,0,0,0,.56-.56V9.311A.559.559,0,0,0,19.261,8.751Zm-7.56-.28a1.96,1.96,0,0,1,3.92,0v.28H11.7Zm6.86,9.52h-9.8v-7.98h1.68v1.54a.14.14,0,0,0,.14.14h.98a.14.14,0,0,0,.14-.14v-1.54h3.92v1.54a.14.14,0,0,0,.14.14h.98a.14.14,0,0,0,.14-.14v-1.54h1.68Z" transform="translate(-7.501 -5.251)" fill="#fff"/>
</svg>
