<svg xmlns="http://www.w3.org/2000/svg" xmlns:xlink="http://www.w3.org/1999/xlink" width="22.047" height="19" viewBox="0 0 22.047 19">
  <defs>
    <filter id="Tracciato_244" x="0" y="0" width="22.047" height="19" filterUnits="userSpaceOnUse">
      <feOffset dy="2" input="SourceAlpha"/>
      <feGaussianBlur stdDeviation="1.5" result="blur"/>
      <feFlood flood-opacity="0.161"/>
      <feComposite operator="in" in2="blur"/>
      <feComposite in="SourceGraphic"/>
    </filter>
  </defs>
  <g transform="matrix(1, 0, 0, 1, 0, 0)" filter="url(#Tracciato_244)">
    <path id="Tracciato_244-2" data-name="Tracciato 244" d="M13.8,4.293a.779.779,0,0,1-.236.572L7.467,10.96,6.322,12.1a.813.813,0,0,1-1.145,0L4.033,10.96.986,7.912a.813.813,0,0,1,0-1.145L2.13,5.623A.779.779,0,0,1,2.7,5.387a.779.779,0,0,1,.572.236L5.75,8.106l5.522-5.53a.813.813,0,0,1,1.145,0L13.561,3.72A.779.779,0,0,1,13.8,4.293Z" transform="translate(3.75 0.16)" fill="#fff"/>
  </g>
</svg>
