<svg xmlns="http://www.w3.org/2000/svg" xmlns:xlink="http://www.w3.org/1999/xlink" width="131" height="131" viewBox="0 0 131 131">
  <defs>
    <filter id="Tracciato_354">
      <feOffset dx="2" dy="4" input="SourceAlpha"/>
      <feGaussianBlur stdDeviation="3" result="blur"/>
      <feFlood flood-opacity="0.161" result="color"/>
      <feComposite operator="out" in="SourceGraphic" in2="blur"/>
      <feComposite operator="in" in="color"/>
      <feComposite operator="in" in2="SourceGraphic"/>
    </filter>
    <filter id="Tracciato_268" x="29.847" y="39.51" width="75.971" height="58.981" filterUnits="userSpaceOnUse">
      <feOffset dx="4" dy="6" input="SourceAlpha"/>
      <feGaussianBlur stdDeviation="3" result="blur-2"/>
      <feFlood flood-opacity="0.161"/>
      <feComposite operator="in" in2="blur-2"/>
      <feComposite in="SourceGraphic"/>
    </filter>
  </defs>
  <g id="Raggruppa_198" data-name="Raggruppa 198" transform="translate(-895 -270)">
    <g data-type="innerShadowGroup">
      <path id="Tracciato_354-2" data-name="Tracciato 354" d="M65.5,0A65.5,65.5,0,1,1,0,65.5,65.5,65.5,0,0,1,65.5,0Z" transform="translate(895 270)" fill="#15af74"/>
      <g transform="matrix(1, 0, 0, 1, 895, 270)" filter="url(#Tracciato_354)">
        <path id="Tracciato_354-3" data-name="Tracciato 354" d="M65.5,0A65.5,65.5,0,1,1,0,65.5,65.5,65.5,0,0,1,65.5,0Z" fill="#fff"/>
      </g>
    </g>
    <g transform="matrix(1, 0, 0, 1, 895, 270)" filter="url(#Tracciato_268)">
      <path id="Tracciato_268-2" data-name="Tracciato 268" d="M32.99,55.481a3.489,3.489,0,0,1-2.475-1.025l-16.99-16.99a3.5,3.5,0,1,1,4.95-4.95L32.99,47.031,64.5,15.525a3.5,3.5,0,1,1,4.95,4.95L35.465,54.455A3.489,3.489,0,0,1,32.99,55.481Z" transform="translate(22.35 28.01)" fill="#fff"/>
    </g>
  </g>
</svg>
