<svg id="icona_Recapiti_e_Consegna_OFF" data-name="icona Recapiti e Consegna OFF" xmlns="http://www.w3.org/2000/svg" width="23.273" height="16" viewBox="0 0 23.273 16">
  <path id="Tracciato_256" data-name="Tracciato 256" d="M0,9v1.455H13.818V21.364H9.341a2.882,2.882,0,0,0-5.591,0H2.909V17.727H1.455v5.091h2.3a2.882,2.882,0,0,0,5.591,0h6.045a2.882,2.882,0,0,0,5.591,0h2.3V16.887l-.046-.114-1.455-4.364-.158-.5H15.273V9Zm.727,2.909v1.455H7.273V11.909Zm14.545,1.455h5.3l1.25,3.727v4.273h-.841a2.882,2.882,0,0,0-5.591,0h-.113ZM1.455,14.818v1.455H5.818V14.818Zm5.091,5.818a1.455,1.455,0,1,1-1.455,1.455A1.443,1.443,0,0,1,6.545,20.636Zm11.636,0a1.455,1.455,0,1,1-1.455,1.455A1.443,1.443,0,0,1,18.182,20.636Z" transform="translate(0 -9)" fill="#6c757d"/>
</svg>
