<svg id="Raggruppa_40" data-name="Raggruppa 40" xmlns="http://www.w3.org/2000/svg" width="9.986" height="9.999" viewBox="0 0 9.986 9.999">
  <path id="Tracciato_124" data-name="Tracciato 124" d="M28.835,14.538l-3.411-4.278a.715.715,0,1,0-1.113.9l3.047,3.829-3.2,3.829a.712.712,0,0,0,1.1.906l3.568-4.278a.713.713,0,0,0,.007-.906Z" transform="translate(-19.008 -9.979)" fill="#18181a"/>
  <path id="Tracciato_125" data-name="Tracciato 125" d="M11.425,10.235a.729.729,0,0,0-1.149.9l3.082,3.829-3.2,3.822a.714.714,0,0,0,1.1.913l3.568-4.278a.713.713,0,0,0,0-.906Z" transform="translate(-9.996 -9.955)" fill="#18181a"/>
</svg>
