<svg xmlns="http://www.w3.org/2000/svg" width="10" height="10" viewBox="0 0 10 10">
  <g id="edit" transform="translate(-6.401 -5.4)">
    <path id="Tracciato_350" data-name="Tracciato 350" d="M4262.563-3854.643a.563.563,0,0,1-.563-.564.563.563,0,0,1,.563-.563h8.873a.564.564,0,0,1,.564.563.564.564,0,0,1-.564.564Zm.986-1.972a.563.563,0,0,1-.563-.563v-1.795a.558.558,0,0,1,.166-.4l5.1-5.107a.562.562,0,0,1,.4-.165.566.566,0,0,1,.4.165l1.8,1.8a.565.565,0,0,1,0,.8l-5.1,5.1a.56.56,0,0,1-.4.166Zm.564-2.124v1h1.006l4.534-4.536-1-1Z" transform="translate(-4255.6 3870.043)" fill="#6c757d"/>
  </g>
</svg>
