<svg xmlns="http://www.w3.org/2000/svg" width="16.299" height="11.299" viewBox="0 0 16.299 11.299">
  <g id="icona_visualizza" data-name="icona visualizza" transform="translate(0)">
    <path id="Tracciato_252" data-name="Tracciato 252" d="M-977.407-637.016a.651.651,0,0,1,0-.669c2.116-3.527,4.827-5.315,8.057-5.315s5.942,1.788,8.058,5.315a.651.651,0,0,1,0,.669c-2.116,3.527-4.827,5.315-8.058,5.315S-975.291-633.488-977.407-637.016Zm4.293-3.543a10.584,10.584,0,0,0-2.972,3.208,10.587,10.587,0,0,0,2.972,3.209A6.674,6.674,0,0,0-969.35-633a6.675,6.675,0,0,0,3.765-1.141,10.6,10.6,0,0,0,2.973-3.209,10.6,10.6,0,0,0-2.973-3.208,6.675,6.675,0,0,0-3.765-1.141A6.674,6.674,0,0,0-973.114-640.559Zm1.447,3.208a2.32,2.32,0,0,1,2.318-2.317,2.32,2.32,0,0,1,2.317,2.317,2.32,2.32,0,0,1-2.317,2.318A2.32,2.32,0,0,1-971.667-637.35Zm1.3,0a1.018,1.018,0,0,0,1.017,1.017,1.018,1.018,0,0,0,1.016-1.017,1.018,1.018,0,0,0-1.016-1.016A1.018,1.018,0,0,0-970.367-637.35Z" transform="translate(977.5 643)" fill="#6c757d"/>
  </g>
</svg>
