<svg xmlns="http://www.w3.org/2000/svg" width="17.371" height="17.345" viewBox="0 0 17.371 17.345">
  <g id="icona_eye_off-nascondi" data-name="icona eye off-nascondi" transform="translate(0.512 0.5)">
    <path id="Tracciato_316" data-name="Tracciato 316" d="M-6326.409,1010.22l-3.276-3.274a7.935,7.935,0,0,1-3.742.958h-.051c-3.234,0-5.953-1.794-8.076-5.33a.656.656,0,0,1-.011-.651,11.993,11.993,0,0,1,3.2-3.662l-3.086-3.086a.648.648,0,0,1,0-.918.648.648,0,0,1,.918,0l15.045,15.043a.649.649,0,0,1,0,.92.646.646,0,0,1-.46.191A.642.642,0,0,1-6326.409,1010.22Zm-13.829-7.99c1.868,2.957,4.116,4.356,6.807,4.374a6.636,6.636,0,0,0,2.788-.618l-1.719-1.717a2.3,2.3,0,0,1-1.119.3h-.018a2.3,2.3,0,0,1-1.638-.692,2.3,2.3,0,0,1-.668-1.646,2.3,2.3,0,0,1,.3-1.1l-1.94-1.94A10.665,10.665,0,0,0-6340.238,1002.23Zm5.734.011a1.018,1.018,0,0,0,.294.724,1.023,1.023,0,0,0,.719.306,1.1,1.1,0,0,0,.108-.022l-1.1-1.1C-6334.486,1002.178-6334.5,1002.208-6334.5,1002.241Zm6.325,2.873a.649.649,0,0,1-.033-.918,13.185,13.185,0,0,0,1.5-1.956c-1.857-2.938-4.071-4.366-6.761-4.366a7.252,7.252,0,0,0-1.394.137.653.653,0,0,1-.768-.508.653.653,0,0,1,.509-.767,8.992,8.992,0,0,1,1.654-.162c3.237,0,5.957,1.792,8.079,5.33a.651.651,0,0,1,0,.665,14.561,14.561,0,0,1-1.872,2.511.644.644,0,0,1-.476.208A.642.642,0,0,1-6328.179,1005.114Z" transform="translate(6341.646 -994.066)" fill="#6c757d" stroke="rgba(0,0,0,0)" stroke-width="1"/>
  </g>
</svg>
