<svg xmlns="http://www.w3.org/2000/svg" xmlns:xlink="http://www.w3.org/1999/xlink" width="28.558" height="18" viewBox="0 0 28.558 18">
  <defs>
    <clipPath id="clip-path">
      <rect id="Rettangolo_114" data-name="Rettangolo 114" width="28.558" height="18" fill="#323a46"/>
    </clipPath>
  </defs>
  <g id="Raggruppa_86" data-name="Raggruppa 86" clip-path="url(#clip-path)">
    <path id="Tracciato_186" data-name="Tracciato 186" d="M27.928.02a.8.8,0,0,0-.959.612L26.48,2.841a3.936,3.936,0,0,0-2.126.944,2.384,2.384,0,0,1-3.251,0,3.972,3.972,0,0,0-5.2,0,2.382,2.382,0,0,1-3.25,0,3.972,3.972,0,0,0-5.2,0,2.382,2.382,0,0,1-3.25,0,3.936,3.936,0,0,0-2.126-.944L1.591.632A.8.8,0,0,0,.019.979l3.62,16.39A.8.8,0,0,0,4.425,18H24.134a.8.8,0,0,0,.786-.631L28.539.979A.8.8,0,0,0,27.928.02m-4.44,16.372H5.071L2.463,4.581a3.47,3.47,0,0,1,.767.485,3.87,3.87,0,0,0,2.6.969,3.869,3.869,0,0,0,2.6-.969,2.383,2.383,0,0,1,3.25,0,3.972,3.972,0,0,0,5.2,0,2.384,2.384,0,0,1,3.25,0,3.973,3.973,0,0,0,5.2,0,3.463,3.463,0,0,1,.767-.485Z" transform="translate(0 0)" fill="#323a46"/>
    <path id="Tracciato_187" data-name="Tracciato 187" d="M29.8,25.6v-.028a1.08,1.08,0,0,0,.732-1.1c0-.866-.521-1.3-1.464-1.3a1.341,1.341,0,0,0-1.458,1.225l.838.1a.587.587,0,0,1,.612-.591.56.56,0,0,1,.605.641c0,.514-.226.746-.768.746h-.317v.725H28.9c.634,0,.929.211.929.676s-.218.746-.725.746a.921.921,0,0,1-.831-.577l-.8.394A1.568,1.568,0,0,0,29,28.158c1.042,0,1.69-.528,1.69-1.514A.94.94,0,0,0,29.8,25.6" transform="translate(-17.33 -14.614)" fill="#323a46"/>
    <path id="Tracciato_188" data-name="Tracciato 188" d="M39.807,23.167c-1.154,0-1.752.8-1.752,2.527,0,1.669.479,2.471,1.669,2.471,1.147,0,1.76-.8,1.76-2.513,0-1.683-.492-2.485-1.676-2.485m-.028,4.252c-.606,0-.852-.563-.852-1.767s.183-1.739.817-1.739c.612,0,.866.591.866,1.781s-.183,1.725-.831,1.725" transform="translate(-24.006 -14.614)" fill="#323a46"/>
    <path id="Tracciato_189" data-name="Tracciato 189" d="M50.161,23.034a1.052,1.052,0,0,0-1.105,1.07,1.009,1.009,0,0,0,1.077,1.049,1.05,1.05,0,0,0,1.105-1.077,1,1,0,0,0-1.077-1.042m0,1.661a.585.585,0,0,1-.584-.612.54.54,0,0,1,.556-.584.57.57,0,0,1,.577.605.537.537,0,0,1-.549.591" transform="translate(-30.946 -14.53)" fill="#323a46"/>
  </g>
</svg>
