<svg id="icona_filtri_B" data-name="icona filtri_B" xmlns="http://www.w3.org/2000/svg" width="14" height="13.997" viewBox="0 0 14 13.997">
  <path id="Tracciato_232" data-name="Tracciato 232" d="M5043.73,11431.376v-6.513h-1.1a.517.517,0,0,1-.515-.518v-3.241a.518.518,0,0,1,.515-.518h1.1v-2.175a.517.517,0,1,1,1.033,0v2.175h1.106a.518.518,0,0,1,.515.518v3.241a.517.517,0,0,1-.515.518h-1.106v6.513a.517.517,0,1,1-1.033,0Zm-.585-7.548h2.207v-2.207h-2.207Zm-4.276,7.548v-1.1h-1.1a.513.513,0,0,1-.515-.518v-3.241a.513.513,0,0,1,.515-.515h1.1v-7.587a.518.518,0,0,1,1.036,0V11426h1.1a.516.516,0,0,1,.518.515v3.241a.516.516,0,0,1-.518.518h-1.1v1.1a.518.518,0,1,1-1.036,0Zm-.585-2.136h2.207v-2.208h-2.207Zm-4.276,2.136v-5.965h-1.1a.515.515,0,0,1-.515-.517v-3.241a.515.515,0,0,1,.515-.519h1.1v-2.723a.518.518,0,0,1,1.036,0v2.723h1.1a.518.518,0,0,1,.516.519v3.241a.517.517,0,0,1-.516.517h-1.1v5.965a.518.518,0,1,1-1.036,0Zm-.585-7h2.207v-2.206h-2.207Z" transform="translate(-11417.895 5046.385) rotate(-90)" fill="#18181a"/>
</svg>
