<svg xmlns="http://www.w3.org/2000/svg" width="17" height="17" viewBox="0 0 17 17">
  <g id="Raggruppa_69" data-name="Raggruppa 69" transform="translate(0 0)">
    <path id="Tracciato_179" data-name="Tracciato 179" d="M7,2.051C7.9,2.009,8.191,2,10.5,2s2.6.01,3.5.051a6.255,6.255,0,0,1,2.065.395,4.351,4.351,0,0,1,2.485,2.486,6.251,6.251,0,0,1,.4,2.063c.042.908.051,1.2.051,3.505s-.01,2.6-.051,3.5a6.232,6.232,0,0,1-.4,2.063,4.339,4.339,0,0,1-2.485,2.486,6.251,6.251,0,0,1-2.063.4c-.907.042-1.2.051-3.505.051s-2.6-.01-3.5-.051a6.231,6.231,0,0,1-2.063-.4,4.344,4.344,0,0,1-2.487-2.485,6.274,6.274,0,0,1-.395-2.063C2.009,13.1,2,12.808,2,10.5s.01-2.6.051-3.5a6.255,6.255,0,0,1,.395-2.065A4.355,4.355,0,0,1,4.932,2.446a6.274,6.274,0,0,1,2.063-.395Zm6.939,1.53c-.9-.041-1.165-.049-3.435-.049s-2.538.008-3.435.049a4.7,4.7,0,0,0-1.579.293A2.807,2.807,0,0,0,3.874,5.487a4.7,4.7,0,0,0-.293,1.579c-.041.9-.049,1.165-.049,3.435s.008,2.538.049,3.435a4.7,4.7,0,0,0,.293,1.579,2.807,2.807,0,0,0,1.613,1.613,4.7,4.7,0,0,0,1.579.293c.9.041,1.165.049,3.435.049s2.538-.009,3.435-.049a4.7,4.7,0,0,0,1.579-.293,2.807,2.807,0,0,0,1.613-1.613,4.7,4.7,0,0,0,.293-1.579c.041-.9.049-1.165.049-3.435s-.008-2.538-.049-3.435a4.7,4.7,0,0,0-.293-1.579,2.807,2.807,0,0,0-1.613-1.613A4.7,4.7,0,0,0,13.935,3.581ZM9.414,13.12a2.836,2.836,0,1,0-1.75-2.62,2.835,2.835,0,0,0,1.75,2.62Zm-2-5.71a4.369,4.369,0,1,1,0,6.179,4.369,4.369,0,0,1,0-6.179Zm8.427-.629A1.033,1.033,0,1,0,14.4,6.761,1.033,1.033,0,0,0,15.838,6.782Z" transform="translate(-2 -2)" fill="#fff" fill-rule="evenodd"/>
  </g>
</svg>
