<svg xmlns="http://www.w3.org/2000/svg" xmlns:xlink="http://www.w3.org/1999/xlink" width="28" height="24" viewBox="0 0 28 24">
  <defs>
    <clipPath id="clip-path">
      <rect id="Rettangolo_113" data-name="Rettangolo 113" width="28" height="24" fill="#323a46"/>
    </clipPath>
  </defs>
  <g id="Raggruppa_83" data-name="Raggruppa 83" clip-path="url(#clip-path)">
    <path id="Tracciato_184" data-name="Tracciato 184" d="M27.381,17.568a.788.788,0,0,0-.94.6l-.479,2.166a3.866,3.866,0,0,0-2.085.926,2.337,2.337,0,0,1-3.187,0,4.884,4.884,0,0,0-1.079-.669v1.832l.123.093a3.9,3.9,0,0,0,5.1,0,3.4,3.4,0,0,1,.753-.476l-2.558,11.58H4.972L2.414,22.039a3.388,3.388,0,0,1,.752.476,3.8,3.8,0,0,0,2.549.95,3.8,3.8,0,0,0,2.549-.95c.082-.063.16-.121.237-.177V20.544a4.65,4.65,0,0,0-1.193.716,2.336,2.336,0,0,1-3.186,0,3.863,3.863,0,0,0-2.084-.926l-.479-2.166a.789.789,0,1,0-1.54.34l3.549,16.07a.788.788,0,0,0,.77.619H23.662a.789.789,0,0,0,.77-.619l3.549-16.07a.789.789,0,0,0-.6-.94" transform="translate(0 -11.197)" fill="#323a46"/>
    <path id="Tracciato_185" data-name="Tracciato 185" d="M17.6,7.054a1.482,1.482,0,0,0,2.012-.173l.77-.876v7.287a1.414,1.414,0,0,0,1.438,1.386,1.478,1.478,0,0,0,.65-.15v.178a1.414,1.414,0,0,0,1.438,1.385,1.429,1.429,0,0,0,1.407-1.1,1.473,1.473,0,0,0,.68.165,1.414,1.414,0,0,0,1.438-1.386v-.962a1.473,1.473,0,0,0,.649.149,1.414,1.414,0,0,0,1.438-1.386v-8.2a.394.394,0,1,0-.789,0v8.2a.652.652,0,0,1-1.3,0V7.542a.395.395,0,0,0-.789,0v6.229a.651.651,0,0,1-1.3,0V8.1a.395.395,0,1,0-.789,0v6.605a.651.651,0,0,1-1.3,0s0-5.866,0-7.166a.394.394,0,0,0-.777-.1.4.4,0,0,0-.012.1v5.752a.652.652,0,0,1-1.3,0V5.464a.585.585,0,0,0-1.024-.386L19.023,6.361a.684.684,0,0,1-.929.076.564.564,0,0,1-.071-.838c.022-.028,2.277-2.782,4.2-4.943a.394.394,0,0,0-.589-.525c-1.937,2.173-4.2,4.94-4.216,4.957A1.344,1.344,0,0,0,17.086,6.1a1.36,1.36,0,0,0,.518.951" transform="translate(-10.898 0)" fill="#323a46"/>
  </g>
</svg>
