<svg xmlns="http://www.w3.org/2000/svg" width="17.785" height="17" viewBox="0 0 17.785 17">
  <path id="Tracciato_176" data-name="Tracciato 176" d="M4.037,17V5.53H.225V17ZM2.132,3.963A1.988,1.988,0,1,0,2.157,0a1.987,1.987,0,1,0-.05,3.963h.025ZM6.147,17H9.96V10.595a2.613,2.613,0,0,1,.125-.93A2.087,2.087,0,0,1,12.041,8.27c1.38,0,1.931,1.052,1.931,2.594V17h3.812V10.423c0-3.523-1.881-5.162-4.389-5.162A3.8,3.8,0,0,0,9.934,7.193H9.96V5.53H6.147c.05,1.076,0,11.47,0,11.47Z" transform="translate(0 0)" fill="#fff"/>
</svg>
