<svg xmlns="http://www.w3.org/2000/svg" width="21.57" height="15" viewBox="0 0 21.57 15">
  <path id="Tracciato_243" data-name="Tracciato 243" d="M-5087.28,10658.163a3.724,3.724,0,0,1-3.719-3.724v-7.187a3.568,3.568,0,0,1,2.069-2.982,9.329,9.329,0,0,1,4.593-1.106,9.373,9.373,0,0,1,4.6,1.106,3.625,3.625,0,0,1,2.064,2.864.569.569,0,0,1,.016.134v2.92h6.747a1.487,1.487,0,0,1,1.483,1.486v5a1.486,1.486,0,0,1-1.483,1.485Zm14.579-2.567v1.428h.834v-2.465a.571.571,0,0,1,.57-.57.573.573,0,0,1,.573.57v2.409a.352.352,0,0,0,.156-.29v-5a.347.347,0,0,0-.343-.347h-12.321a.622.622,0,0,1-.172-.023c-.309.023-.618.037-.932.037a9.308,9.308,0,0,1-4.593-1.106c-.126-.074-.253-.153-.375-.235a4.469,4.469,0,0,1-.557-.428v4.868a2.577,2.577,0,0,0,2.207,2.555v-2.436a.568.568,0,0,1,.567-.57.571.571,0,0,1,.57.57v2.465h.834v-1.428a.574.574,0,0,1,.573-.571.571.571,0,0,1,.567.571v1.428h.832v-2.465a.572.572,0,0,1,.573-.57.573.573,0,0,1,.573.57v2.465h.829v-1.428a.574.574,0,0,1,.57-.571.574.574,0,0,1,.573.571v1.428h.831v-2.465a.571.571,0,0,1,.571-.57.571.571,0,0,1,.57.57v2.465h.837v-1.428a.568.568,0,0,1,.567-.571.57.57,0,0,1,.57.571v1.428h.834v-2.465a.569.569,0,0,1,.567-.57.569.569,0,0,1,.57.57v2.465h.834v-1.428a.572.572,0,0,1,.573-.571A.57.57,0,0,1-5072.7,10655.6Zm-6.951-5.408h.853v-.616A5.3,5.3,0,0,1-5079.652,10650.188Zm-8.71-4.928a2.5,2.5,0,0,0-1.5,1.992,2.313,2.313,0,0,0,1.188,1.8c.1.065.2.129.312.189a8.264,8.264,0,0,0,4.031.945,8.761,8.761,0,0,0,3.521-.685,4.985,4.985,0,0,0,.5-.258,2.5,2.5,0,0,0,1.5-1.993,2.5,2.5,0,0,0-1.5-1.992,8.178,8.178,0,0,0-4.022-.956A8.19,8.19,0,0,0-5088.362,10645.26Zm1.716,3.575a1.858,1.858,0,0,1-1.008-1.554v-.029a1.876,1.876,0,0,1,1.021-1.536,4.532,4.532,0,0,1,2.3-.575,4.517,4.517,0,0,1,2.3.575,1.885,1.885,0,0,1,1.024,1.539v.026a1.862,1.862,0,0,1-1.012,1.554,4.468,4.468,0,0,1-2.314.586A4.481,4.481,0,0,1-5086.646,10648.835Zm.657-2.175c-.328.186-.522.415-.525.615v.009c0,.2.2.427.52.611a3.445,3.445,0,0,0,1.666.386,3.432,3.432,0,0,0,1.663-.386c.325-.185.521-.411.521-.611v-.006c0-.2-.2-.433-.526-.618a3.44,3.44,0,0,0-1.657-.382A3.451,3.451,0,0,0-5085.989,10646.66Z" transform="translate(5090.999 -10643.163)" fill="#18181a"/>
</svg>
