<svg xmlns="http://www.w3.org/2000/svg" width="16.25" height="13" viewBox="0 0 16.25 13">
  <g id="money" transform="translate(-0.141 -0.563)">
    <g id="Raggruppa_184" data-name="Raggruppa 184" transform="translate(0.141 0.563)">
      <path id="Tracciato_259" data-name="Tracciato 259" d="M14.193.563H.141V11.751H14.193ZM13.112,10.632H1.222V1.681h11.89Z" transform="translate(-0.141 -0.563)" fill="#fff"/>
      <path id="Tracciato_260" data-name="Tracciato 260" d="M13.71,1.266v9.34H.844v1.1H14.829V1.266Z" transform="translate(1.421 1.296)" fill="#fff"/>
      <path id="Tracciato_261" data-name="Tracciato 261" d="M3.808,6.661a2.591,2.591,0,0,0,2.472-2.69,2.591,2.591,0,0,0-2.472-2.69,2.591,2.591,0,0,0-2.472,2.69A2.591,2.591,0,0,0,3.808,6.661Zm0-4.28A1.5,1.5,0,0,1,5.182,3.971,1.5,1.5,0,0,1,3.808,5.562,1.5,1.5,0,0,1,2.435,3.971,1.5,1.5,0,0,1,3.808,2.38Z" transform="translate(3.24 1.461)" fill="#fff"/>
      <path id="Tracciato_262" data-name="Tracciato 262" d="M.7,1.2H1.8V7.239H.7Z" transform="translate(1.495 1.213)" fill="#fff"/>
      <path id="Tracciato_263" data-name="Tracciato 263" d="M2.953,1.2h1.1V7.239h-1.1Z" transform="translate(7.869 1.213)" fill="#fff"/>
    </g>
  </g>
</svg>
