<svg id="icona_Info_Pagamento_ON" data-name="icona Info Pagamento ON" xmlns="http://www.w3.org/2000/svg" width="17.848" height="15.199" viewBox="0 0 17.848 15.199">
  <path id="Tracciato_264" data-name="Tracciato 264" d="M-2415.205-1452.2l-11.641,0a2.565,2.565,0,0,1-1.761-.743,2.889,2.889,0,0,1-.568-1.654v-10.453a2.226,2.226,0,0,1,.648-1.794,2.781,2.781,0,0,1,1.761-.551h11.694v.005a2.731,2.731,0,0,1,1.737.562,2.148,2.148,0,0,1,.624,1.539v1.856a.7.7,0,0,1-.695.688h-.013a.7.7,0,0,1-.695-.687v-1.815a.841.841,0,0,0-.182-.579,1.879,1.879,0,0,0-.908-.193h-11.535a1.427,1.427,0,0,0-.866.211c-.081.068-.167.3-.167.759l0,10.381a1.563,1.563,0,0,0,.248.847,1.451,1.451,0,0,0,.771.251h11.66a1.378,1.378,0,0,0,.8-.15,1.471,1.471,0,0,0,.177-.888v-1.8a.7.7,0,0,1,.7-.688.7.7,0,0,1,.7.688v1.8a2.524,2.524,0,0,1-.572,1.844,2.416,2.416,0,0,1-1.8.569Zm-3.573-5.14a1.555,1.555,0,0,1-1.57-1.536v-1.952a1.555,1.555,0,0,1,1.57-1.536h5.88a1.556,1.556,0,0,1,1.57,1.536v1.952a1.556,1.556,0,0,1-1.57,1.536Zm-.167-3.487v1.95a.165.165,0,0,0,.165.161h5.885a.166.166,0,0,0,.165-.163v-1.95a.166.166,0,0,0-.165-.161h-5.883A.165.165,0,0,0-2418.945-1460.828Zm.8.982a.82.82,0,0,1,.734-.8v-.005h.1a.823.823,0,0,1,.835.809.823.823,0,0,1-.835.809A.823.823,0,0,1-2418.143-1459.846Z" transform="translate(2429.177 1467.4)" fill="#fff"/>
</svg>
