<svg xmlns="http://www.w3.org/2000/svg" width="17.774" height="20.999" viewBox="0 0 17.774 20.999">
  <g id="payment_trust_symbol" transform="translate(-3.5 -0.5)">
    <path id="Tracciato_266" data-name="Tracciato 266" d="M12.386,20.556c4.632-2.135,7.5-3.737,8.036-8.516l-.17-9L12.386,1.374,4.52,3.036,4.353,12.1C4.888,16.82,7.753,18.421,12.386,20.556ZM21.094,2.34l.18,9.74c-.587,5.249-3.682,7.026-8.71,9.337l-.179.082-.179-.082C7.179,19.105,4.084,17.328,3.5,12.136l.177-9.8L12.386.5Z" fill="#6c757d" fill-rule="evenodd"/>
    <path id="Tracciato_267" data-name="Tracciato 267" d="M14.581,6.917a3.264,3.264,0,0,0-3.264,3.264h-1.4v6.528h9.326V10.181h-1.4A3.264,3.264,0,0,0,14.581,6.917Zm2.331,3.264a2.331,2.331,0,0,0-4.663,0Zm-6.062,5.6V11.113h7.461v4.663Zm3.37-2.9a.36.36,0,1,1,.36.36A.36.36,0,0,1,14.22,12.872Zm.36-1.293a1.293,1.293,0,0,0-.466,2.5V15.31h.933V14.078a1.293,1.293,0,0,0-.466-2.5Z" transform="translate(-2.193 -2.193)" fill="#6c757d" fill-rule="evenodd"/>
  </g>
</svg>
