<svg id="icona_button_abmassador" data-name="icona button abmassador" xmlns="http://www.w3.org/2000/svg" width="10.64" height="13" viewBox="0 0 10.64 13">
  <path id="Tracciato_227" data-name="Tracciato 227" d="M5268,19106.91v-3.545l5.32-2.365,5.32,2.365v3.545a5.541,5.541,0,1,1-10.64,0Zm1.185-2.777v2.777a4.391,4.391,0,1,0,8.27,0v-2.777l-4.135-1.838Zm3.468,4.951-1.17-1.172a.5.5,0,0,1,.706-.709l.82.82,1.986-1.986a.5.5,0,0,1,.705.705l-2.341,2.342a.493.493,0,0,1-.706,0Z" transform="translate(-5267.999 -19101)" fill="#18181a"/>
</svg>
