<svg xmlns="http://www.w3.org/2000/svg" width="14.586" height="17.001" viewBox="0 0 14.586 17.001">
  <g id="shopping-bag" transform="translate(0 0.001)">
    <path id="Tracciato_203" data-name="Tracciato 203" d="M12212.707,19118.051a.657.657,0,0,1-.656-.658v-12.064a.656.656,0,0,1,.656-.656h2.961a3.674,3.674,0,0,1,7.348,0h2.967a.656.656,0,0,1,.654.656v12.064a.656.656,0,0,1-.654.658Zm.656-1.316h11.961v-10.752h-2.309v1.754a.656.656,0,0,1-.654.658h-.66v-2.412h-4.721v2.412h-.654a.657.657,0,0,1-.658-.658v-1.754h-2.3Zm3.623-12.062h4.715a2.358,2.358,0,0,0-4.715,0Z" transform="translate(-12212.051 -19101.051)" fill="#18181a"/>
  </g>
</svg>
