<svg id="icona_vedi_dettaglio" data-name="icona vedi dettaglio" xmlns="http://www.w3.org/2000/svg" width="19.916" height="14.001" viewBox="0 0 19.916 14.001">
  <path id="Tracciato_126" data-name="Tracciato 126" d="M14.708,10.75A10.337,10.337,0,0,1,22.2,14.11a13.67,13.67,0,0,1,2.4,3.336.715.715,0,0,1,0,.609,13.67,13.67,0,0,1-2.4,3.336,10.337,10.337,0,0,1-7.492,3.36,10.337,10.337,0,0,1-7.492-3.36,13.67,13.67,0,0,1-2.4-3.336.715.715,0,0,1,0-.609,13.67,13.67,0,0,1,2.4-3.336A10.337,10.337,0,0,1,14.708,10.75Zm8.436,7a12.941,12.941,0,0,0-2-2.677,8.815,8.815,0,0,0-6.435-2.894c-4.994,0-7.766,4.365-8.436,5.57a12.941,12.941,0,0,0,2,2.677,8.815,8.815,0,0,0,6.435,2.894C19.7,23.321,22.474,18.956,23.144,17.75Z" transform="translate(-4.75 -10.75)" fill="#18181a"/>
  <path id="Ellisse_14_-_Contorno" data-name="Ellisse 14 - Contorno" d="M1.75-.5A2.25,2.25,0,1,1-.5,1.75,2.253,2.253,0,0,1,1.75-.5Z" transform="translate(8.208 5.25)" fill="#18181a"/>
</svg>
