<svg xmlns="http://www.w3.org/2000/svg" width="12.004" height="12" viewBox="0 0 12.004 12">
  <path id="Tracciato_245" data-name="Tracciato 245" d="M-19991.357,6222.244l-4.643-4.642-4.641,4.642a.8.8,0,0,1-.564.234.8.8,0,0,1-.562-.234.792.792,0,0,1,0-1.122l4.645-4.644-4.645-4.646a.793.793,0,0,1,0-1.123.8.8,0,0,1,1.127,0l4.643,4.644,4.645-4.644a.8.8,0,0,1,1.125,0,.8.8,0,0,1,0,1.123l-4.645,4.644,4.645,4.645a.8.8,0,0,1,0,1.122.8.8,0,0,1-.564.234A.807.807,0,0,1-19991.357,6222.244Z" transform="translate(20002 -6210.478)" fill="#6c757d"/>
</svg>
