<svg xmlns="http://www.w3.org/2000/svg" width="18.194" height="22" viewBox="0 0 18.194 22">
  <path id="Tracciato_178" data-name="Tracciato 178" d="M12.313,15.272v2.59q0,.823-.479.823a.788.788,0,0,1-.552-.27v-3.7a.788.788,0,0,1,.552-.27Q12.313,14.45,12.313,15.272Zm4.15.012v.565h-1.1v-.565q0-.835.552-.835T16.462,15.285ZM4.6,12.608H5.916V11.454H2.086v1.154H3.375v6.985H4.6Zm3.536,6.985H9.231V13.529H8.139V18.17q-.368.516-.7.516-.221,0-.258-.258A3.417,3.417,0,0,1,7.169,18V13.529H6.076v4.8a3.035,3.035,0,0,0,.1.9.661.661,0,0,0,.712.454,1.8,1.8,0,0,0,1.252-.749Zm5.267-1.817V15.358a4.366,4.366,0,0,0-.11-1.215.853.853,0,0,0-.872-.687,1.479,1.479,0,0,0-1.142.663V11.454H10.189v8.14h1.093V19a1.523,1.523,0,0,0,1.142.675A.85.85,0,0,0,13.295,19,4.513,4.513,0,0,0,13.405,17.777Zm4.15-.123v-.16H16.438a6.078,6.078,0,0,1-.025.749.47.47,0,0,1-.491.442q-.565,0-.565-.847V16.77h2.2V15.506a2.436,2.436,0,0,0-.331-1.424,1.678,1.678,0,0,0-2.615,0,2.368,2.368,0,0,0-.344,1.424v2.124a2.306,2.306,0,0,0,.356,1.424,1.576,1.576,0,0,0,1.326.626,1.52,1.52,0,0,0,1.584-1.314A5.4,5.4,0,0,0,17.555,17.654ZM10.091,6.445V3.867q0-.847-.528-.847t-.528.847V6.445q0,.859.528.859T10.091,6.445Zm8.827,9.22a21.272,21.272,0,0,1-.319,4.3,2.331,2.331,0,0,1-.712,1.215,2.148,2.148,0,0,1-1.252.565A65.643,65.643,0,0,1,9.82,22a65.643,65.643,0,0,1-6.814-.258,2.176,2.176,0,0,1-1.258-.565,2.244,2.244,0,0,1-.706-1.215,20.833,20.833,0,0,1-.319-4.3,21.272,21.272,0,0,1,.319-4.3,2.331,2.331,0,0,1,.712-1.215,2.226,2.226,0,0,1,1.265-.577q2.247-.246,6.8-.246t6.814.246A2.306,2.306,0,0,1,18.6,11.368,20.834,20.834,0,0,1,18.918,15.665ZM6.665,0H7.918L6.432,4.9V8.225H5.2V4.9a20.789,20.789,0,0,0-.749-2.6Q4,1.031,3.657,0h1.3L5.83,3.229Zm4.542,4.088V6.237a2.42,2.42,0,0,1-.344,1.449,1.53,1.53,0,0,1-1.3.626,1.518,1.518,0,0,1-1.289-.626A2.454,2.454,0,0,1,7.93,6.237V4.088a2.394,2.394,0,0,1,.344-1.436,1.518,1.518,0,0,1,1.289-.626,1.53,1.53,0,0,1,1.3.626A2.394,2.394,0,0,1,11.208,4.088ZM15.32,2.1V8.225H14.2V7.55a1.767,1.767,0,0,1-1.265.761.682.682,0,0,1-.724-.454,3.15,3.15,0,0,1-.1-.921V2.1h1.117V6.6a3.217,3.217,0,0,0,.012.43q.037.27.258.27.331,0,.7-.528V2.1Z" transform="translate(-0.723)" fill="#fff"/>
</svg>
